<?xml version="1.0" encoding="UTF-8"?>
<svg width="752pt" height="752pt" version="1.1" viewBox="0 0 752 752" xmlns="http://www.w3.org/2000/svg">
 <path d="m535.89 277.63c-0.015625-0.011718-0.027344-0.03125-0.042969-0.042968l-133.21-99.902c-15.672-11.75-37.578-11.758-53.281 0.007812l-133.2 99.895c-0.011719 0.011718-0.027344 0.03125-0.042969 0.046874l-43.844 32.887c-6.5391 4.8984-7.8633 14.18-2.957 20.719 4.8984 6.5312 14.164 7.8906 20.719 2.957l8.3828-6.293v210.89c0 24.484 19.914 44.398 44.398 44.398h266.39c24.484 0 44.398-19.914 44.398-44.398l-0.003906-210.89 8.3828 6.2852c2.668 2.0039 5.7812 2.9648 8.8672 2.9648 4.5039 0 8.9453-2.0469 11.852-5.918 4.9062-6.5391 3.5859-15.816-2.957-20.719zm-204.29 275.96v-94.23c0-5.168 4.1992-9.3633 9.3672-9.3633h70.066c5.1641 0 9.3633 4.1953 9.3633 9.3633v94.23zm186.47-252.33c3.7148 2.7812 5.9258 7.2109 5.9258 11.844v225.69c0 8.1602-6.6406 14.801-14.801 14.801h-59.199v-94.23c0.003906-21.484-17.477-38.965-38.961-38.965h-70.066c-21.484 0-38.965 17.48-38.965 38.965v94.23h-59.195c-8.1602 0-14.801-6.6406-14.801-14.801v-225.69c0-4.625 2.2109-9.0508 5.9102-11.832l133.2-99.902c2.6133-1.9648 5.7461-2.9414 8.8828-2.9414s6.2734 0.97656 8.8828 2.9336z" fill="#fff"/>
</svg>
