<?xml version="1.0" encoding="UTF-8"?>
<svg width="752pt" height="752pt" version="1.1" viewBox="0 0 752 752" xmlns="http://www.w3.org/2000/svg">
 <g fill="#fff">
  <path d="m435.16 328.98-75.344-43.055 0.003906 0.003906c-3.332-1.9023-7.4258-1.8906-10.742 0.035156-3.3203 1.9258-5.3633 5.4727-5.3633 9.3086v86.105c0 3.8359 2.043 7.3828 5.3594 9.3086 3.3203 1.9258 7.4141 1.9414 10.746 0.035156l75.344-43.055-0.003906 0.003906c3.3555-1.918 5.4258-5.4844 5.4258-9.3438 0-3.8633-2.0703-7.4297-5.4258-9.3477zm-69.918 33.852v-49.012l42.883 24.508z"/>
  <path d="m537.45 182.27h-322.89c-8.5625 0.007813-16.77 3.4141-22.824 9.4648-6.0508 6.0547-9.457 14.262-9.4648 22.824v247.55c0.007813 8.5625 3.4141 16.77 9.4648 22.824 6.0547 6.0508 14.262 9.457 22.824 9.4688h86.105v53.816l-10.766-0.003906c-5.9414 0-10.762 4.8203-10.762 10.766 0 5.9453 4.8203 10.762 10.762 10.762h172.21c5.9453 0 10.766-4.8164 10.766-10.762 0-5.9453-4.8203-10.766-10.766-10.766h-10.762v-53.812h86.105c8.5625-0.011719 16.77-3.418 22.82-9.4688 6.0547-6.0547 9.4609-14.262 9.4688-22.824v-247.55c-0.007812-8.5625-3.4141-16.77-9.4688-22.824-6.0508-6.0508-14.258-9.457-22.82-9.4648zm-107.63 365.95h-107.63v-53.812h107.63zm118.39-86.105c-0.007813 5.9414-4.8203 10.758-10.762 10.766h-322.89c-5.9414-0.007813-10.758-4.8242-10.766-10.766v-247.55c0.007813-5.9414 4.8242-10.758 10.766-10.766h322.89c5.9414 0.007813 10.754 4.8242 10.762 10.766z"/>
  <path d="m465.69 301.13c-5.6836 1.7461-8.875 7.7656-7.1328 13.449 7.5195 24.352 3.1172 50.828-11.879 71.438-14.992 20.609-38.824 32.949-64.312 33.293-25.484 0.34375-49.641-11.344-65.188-31.543-15.547-20.195-20.664-46.539-13.809-71.09 6.8555-24.547 24.883-44.43 48.645-53.648s50.48-6.6992 72.098 6.8008c5.043 3.1484 11.684 1.6133 14.832-3.4258 3.1484-5.043 1.6172-11.684-3.4258-14.832-27.289-16.996-60.988-20.137-90.949-8.4883-29.961 11.652-52.684 36.738-61.32 67.703-8.6367 30.969-2.1836 64.191 17.422 89.672 19.602 25.477 50.066 40.23 82.211 39.816 32.145-0.41406 62.215-15.949 81.152-41.926 18.941-25.977 24.539-59.355 15.105-90.086-1.75-5.6797-7.7656-8.8711-13.449-7.1328z"/>
 </g>
</svg>
