<?xml version="1.0" encoding="UTF-8"?>
<svg width="752pt" height="752pt" version="1.1" viewBox="0 0 752 752" xmlns="http://www.w3.org/2000/svg">
 <g fill="#fff">
  <path d="m494.4 163.88h-236.79c-24.848 0.03125-48.672 9.918-66.242 27.488-17.57 17.57-27.457 41.395-27.488 66.242v236.79c0.03125 24.848 9.918 48.668 27.488 66.242 17.57 17.57 41.395 27.453 66.242 27.484h236.79c24.848-0.03125 48.668-9.9141 66.242-27.484 17.57-17.574 27.453-41.395 27.484-66.242v-236.79c-0.03125-24.848-9.9141-48.672-27.484-66.242-17.574-17.57-41.395-27.457-66.242-27.488zm64.129 330.52c-0.019532 17-6.7852 33.301-18.805 45.324-12.023 12.02-28.324 18.785-45.324 18.805h-236.79c-17-0.019532-33.301-6.7852-45.324-18.805-12.023-12.023-18.785-28.324-18.805-45.324v-236.79c0.019532-17 6.7812-33.301 18.805-45.324s28.324-18.785 45.324-18.805h236.79c17 0.019532 33.301 6.7812 45.324 18.805 12.02 12.023 18.785 28.324 18.805 45.324z"/>
  <path d="m376 390.8c19.625 0 38.449-7.7969 52.324-21.672 13.879-13.879 21.676-32.699 21.676-52.324s-7.7969-38.449-21.676-52.324c-13.875-13.879-32.699-21.672-52.324-21.672s-38.445 7.793-52.324 21.672c-13.875 13.875-21.672 32.699-21.672 52.324 0.027344 19.617 7.832 38.422 21.703 52.293 13.871 13.871 32.676 21.676 52.293 21.703zm0-118.39c11.777 0 23.07 4.6758 31.395 13.004 8.3281 8.3242 13.004 19.617 13.004 31.395 0 11.773-4.6758 23.066-13.004 31.395-8.3242 8.3242-19.617 13.004-31.395 13.004-11.773 0-23.066-4.6797-31.395-13.004-8.3242-8.3281-13.004-19.621-13.004-31.395 0.015626-11.77 4.6992-23.055 13.023-31.379 8.3242-8.3203 19.605-13.004 31.375-13.02z"/>
  <path d="m406.49 400.67h-60.973c-20.473 0.023437-40.227 7.5195-55.559 21.086-15.328 13.562-25.18 32.262-27.695 52.574-0.47656 3.8984 0.60938 7.8242 3.0273 10.918 2.418 3.0938 5.9609 5.1016 9.8594 5.5781 0.60156 0.078125 1.207 0.11719 1.8164 0.12109 3.6094-0.007812 7.0938-1.332 9.7969-3.7266s4.4414-5.6953 4.8828-9.2773c1.625-13.148 7.9961-25.25 17.918-34.027 9.9219-8.7812 22.707-13.633 35.953-13.648h60.973c13.246 0.015625 26.031 4.8672 35.953 13.648 9.918 8.7773 16.289 20.879 17.918 34.027 0.64453 5.2461 4.0391 9.7539 8.9062 11.816 4.8711 2.0664 10.469 1.3789 14.691-1.8047 4.2227-3.1836 6.4297-8.375 5.7812-13.625-2.5117-20.316-12.355-39.016-27.688-52.582-15.332-13.562-35.09-21.059-55.562-21.078z"/>
 </g>
</svg>
