<?xml version="1.0" encoding="UTF-8"?>
<svg width="752pt" height="752pt" version="1.1" viewBox="0 0 752 752" xmlns="http://www.w3.org/2000/svg">
 <g fill="#fff">
  <path d="m209.49 228.15h33.906v-28.414h-62.324v370.81h389.85v-370.81h-62.32v28.414h33.91l-0.003906 66.68h-333.02zm333.02 95.098v218.89h-333.02v-218.89z"/>
  <path d="m361.51 346.02h28.984v113.23h-28.984z"/>
  <path d="m392.67 493.31c0 9.207-7.4648 16.668-16.672 16.668s-16.668-7.4609-16.668-16.668c0-9.207 7.4609-16.672 16.668-16.672s16.672 7.4648 16.672 16.672"/>
  <path d="m295.49 199.73h161.02v28.414h-161.02z"/>
  <path d="m255.24 176.72h28.414v78.141h-28.414z"/>
  <path d="m468.35 176.72h28.414v78.141h-28.414z"/>
 </g>
</svg>
