<?xml version="1.0" encoding="UTF-8"?>
<svg width="752pt" height="752pt" version="1.1" viewBox="0 0 752 752" xmlns="http://www.w3.org/2000/svg">
 <g>
  <path d="m276.55 546.49h-75.773c-5.2109 0-9.4727-4.2617-9.4727-9.4727v-142.07c0-5.2109 4.2617-9.4727 9.4727-9.4727h75.773c5.2109 0 9.4727 4.2617 9.4727 9.4727v142.07c-0.003907 5.207-4.2656 9.4727-9.4727 9.4727zm-66.301-18.945h56.828v-123.13h-56.828z"/>
  <path d="m460.3 522.81h-183.75c-5.2109 0-9.4727-4.2617-9.4727-9.4727 0-5.2109 4.2617-9.4727 9.4727-9.4727h179.96l83.824-80.035c2.3672-2.3672 3.7891-5.2109 3.7891-8.5234 0-3.3164-1.4219-6.1562-3.7891-8.5234-4.2617-3.7891-9.9453-3.7891-14.207-0.47266l-54.934 39.309c-1.4219 0.94531-3.3164 1.8945-5.6836 1.8945l-116.03-0.003906c-3.7891 0-7.1055-1.8945-8.5234-5.2109-1.4219-3.3164-1.4219-7.1055 0.94531-9.9453l46.41-61.094c3.7891-5.2109 3.3164-12.785-1.4219-17.051-4.7344-4.7344-12.312-5.2109-17.523-0.94531l-82.398 63.465c-4.2617 3.3164-9.9453 2.3672-13.262-1.4219-3.3164-3.7891-2.3672-9.9453 1.4219-13.262l82.402-64.406c12.785-9.9453 30.781-8.9961 42.621 2.3672 11.367 11.367 12.312 29.363 2.8398 42.148l-34.094 45.938h92.82l52.566-37.887c11.367-8.0508 26.992-7.5781 37.887 1.8945 6.6289 5.6836 10.418 13.734 10.418 22.258s-3.3164 17.051-9.4727 22.73l-86.66 82.879c-1.4219 1.8945-3.7891 2.8438-6.1602 2.8438z"/>
  <path d="m470.72 371.27c-5.2109 0-9.4727-4.2617-9.4727-9.4727v-151.54c0-5.2109 4.2617-9.4727 9.4727-9.4727s9.4727 4.2617 9.4727 9.4727v151.55c-0.003906 5.207-4.2656 9.4688-9.4727 9.4688z"/>
  <path d="m470.72 352.32c-27.469 0-44.043-16.102-44.516-17.051-3.7891-3.7891-3.7891-9.4727 0-13.262 3.7891-3.7891 9.4727-3.7891 13.262 0 0.46875 0.47656 12.309 11.367 31.254 11.367 9.9453 0 28.414-3.7891 28.414-18.941 0-10.891-9.9453-15.156-31.258-21.785-19.891-6.1562-44.516-13.734-44.516-39.781 0-25.102 23.68-37.887 47.359-37.887 21.785 0 37.887 10.891 38.359 11.367 4.2617 2.8398 5.6836 8.9961 2.3672 13.262-2.8398 4.2617-8.9961 5.6836-13.262 2.3672 0 0-12.312-8.0508-27.941-8.0508-9.9453 0-28.414 3.7891-28.414 18.941 0 10.891 9.9453 15.156 31.258 21.785 19.891 6.1562 44.516 13.734 44.516 39.781 0.47266 25.098-23.203 37.887-46.883 37.887z"/>
  <path d="m238.66 489.66c-5.2109 0-9.4727 4.2617-9.4727 9.4727 0 5.2109 4.2617 9.4727 9.4727 9.4727 5.2109 0 9.4727-4.2617 9.4727-9.4727-0.003907-5.2109-4.2656-9.4727-9.4727-9.4727z"/>
 </g>
</svg>
