<?xml version="1.0" encoding="UTF-8"?>
<svg width="752pt" height="752pt" version="1.1" viewBox="0 0 752 752" xmlns="http://www.w3.org/2000/svg">
 <path d="m553.59 168.81h-325.59c-3.9258 0-7.6914 1.5586-10.465 4.3359-2.7773 2.7734-4.3359 6.5391-4.3359 10.465v162.79c0 5.2891 2.8203 10.172 7.4023 12.816 4.5781 2.6445 10.219 2.6445 14.797 0s7.4023-7.5273 7.4023-12.816v-73.996h44.398v29.598h-0.003906c0 5.2891 2.8242 10.172 7.4023 12.816 4.5781 2.6445 10.219 2.6445 14.797 0 4.582-2.6445 7.4023-7.5273 7.4023-12.816v-29.598h147.99v29.598c0 5.2891 2.8203 10.172 7.4023 12.816 4.5781 2.6445 10.219 2.6445 14.797 0 4.5781-2.6445 7.4023-7.5273 7.4023-12.816v-29.598h44.398l-0.003906 281.19h-133.19c-5.2891 0-10.176 2.8203-12.816 7.3984-2.6445 4.582-2.6445 10.223 0 14.801 2.6406 4.5781 7.5273 7.3984 12.816 7.3984h147.99c3.9258 0 7.6914-1.5586 10.465-4.332 2.7773-2.7773 4.3359-6.5391 4.3359-10.465v-384.79c0-3.9258-1.5586-7.6914-4.3359-10.465-2.7734-2.7773-6.5391-4.3359-10.465-4.3359zm-59.195 74v-14.801c0-5.2891-2.8242-10.172-7.4023-12.816-4.5781-2.6445-10.219-2.6445-14.797 0-4.582 2.6445-7.4023 7.5273-7.4023 12.816v14.801h-147.99v-14.801c0-5.2891-2.8203-10.172-7.4023-12.816-4.5781-2.6445-10.219-2.6445-14.797 0-4.5781 2.6445-7.4023 7.5273-7.4023 12.816v14.801h-44.395v-44.398h295.98v44.398zm-199.79 118.39c-29.438 0-57.672 11.691-78.488 32.508-20.812 20.816-32.508 49.047-32.508 78.488 0 29.438 11.695 57.668 32.508 78.484 20.816 20.816 49.051 32.508 78.488 32.508s57.668-11.691 78.484-32.508 32.512-49.047 32.512-78.484c0-29.441-11.695-57.672-32.512-78.488-20.816-20.816-49.047-32.508-78.484-32.508zm0 192.39c-21.59 0-42.293-8.5742-57.559-23.84-15.262-15.266-23.84-35.969-23.84-57.555 0-21.59 8.5781-42.293 23.84-57.559 15.266-15.266 35.969-23.84 57.559-23.84 21.586 0 42.289 8.5742 57.555 23.84s23.84 35.969 23.84 57.559c-0.039062 21.574-8.625 42.254-23.883 57.512-15.258 15.258-35.938 23.844-57.512 23.883zm42.031-60.531v0.003906c-0.23828 7.9023-3.3906 15.438-8.8594 21.148-5.4648 5.7148-12.855 9.1992-20.742 9.7812v17.168h-16.574v-15.984c-9.875-0.28125-19.57-2.707-28.414-7.1055l5.0312-19.684c8.4805 4.6953 17.984 7.2383 27.676 7.4023 9.6211 0 16.133-3.6992 16.133-10.359s-5.3281-10.359-17.758-14.801c-17.906-6.0664-29.598-14.801-29.598-30.637l-0.003906 0.003906c0.29688-7.5312 3.332-14.695 8.5352-20.145 5.207-5.4492 12.223-8.8125 19.73-9.457v-15.836h16.426v14.801c8.0898 0.20703 16.047 2.0742 23.383 5.4766l-4.7344 18.941c-7.4922-3.7422-15.746-5.7188-24.121-5.7695-10.953 0-14.801 4.7344-14.801 9.3242 0 4.5859 5.7734 9.1758 19.98 14.801 20.719 6.6562 28.711 15.832 28.711 30.93z"/>
</svg>
