<?xml version="1.0" encoding="UTF-8"?>
<svg width="752pt" height="752pt" version="1.1" viewBox="0 0 752 752" xmlns="http://www.w3.org/2000/svg">
 <g>
  <path d="m569.12 231.8-19.141-11.707c-4.4609-2.6016-9.6641-3.5312-14.68-2.2305-4.832 1.3008-9.1055 4.2734-11.707 8.7344l-17.84 29.176v0.1875l-14.867 24.527v-43.297c0-10.035-8.5469-18.027-19.141-18.027h-57.605l0.003906-13.938c0-4.0859-3.3438-7.4336-7.4336-7.4336h-12.82c-3.3438-16.539-18.211-28.988-35.863-28.988-17.469 0-32.148 12.449-35.676 28.988h-12.82c-4.0859 0-7.4336 3.3438-7.4336 7.4336v13.938h-57.418c-10.406 0-19.324 8.1758-19.324 18.027v186.75c-12.266 1.4883-23.973 6.6875-33.078 15.422-11.52 10.961-18.211 25.645-18.582 41.438-0.55859 15.793 5.2031 30.848 15.98 42.367 9.6641 10.035 22.113 15.98 35.68 17.84v23.969c0 9.8477 8.918 18.211 19.324 18.211h227.08c10.59 0 19.141-8.1758 19.141-18.211v-25.086l-0.007812-141.78 66.895-110.75 17.84-29.176c5.3867-9.1055 2.6016-20.996-6.5039-26.387zm-143.27 236.18-21.184 13.75 2.2305-25.086zm-67.828-284.31c9.293 0 17.281 5.9453 20.254 14.121h-40.324c3.1641-8.1758 10.781-14.121 20.07-14.121zm-117.81 53.516c0-1.4883 2.043-3.1602 4.4609-3.1602h57.418v13.566c0 4.0859 3.3438 7.4336 7.4336 7.4336h97.188c4.0898 0 7.4336-3.3438 7.4336-7.4336v-13.566h57.605c2.4141 0 4.2734 1.6719 4.2734 3.1602v67.824l-28.988 47.941h-182.48c-4.0898 0-7.4336 3.3438-7.4336 7.4336 0 4.0859 3.3438 7.4336 7.4336 7.4336h173.38l-15.609 26.016h-157.77c-4.0898 0-7.4336 3.3438-7.4336 7.4336 0 4.0898 3.3438 7.4336 7.4336 7.4336h148.84l-15.609 25.645-130.63-0.003906c-7.9922-5.5742-17.281-8.918-26.945-10.219zm152.56 212.02-2.4141 25.828-99.043 0.003906c-1.1133-9.293-4.4609-18.027-9.8477-25.828zm-172.82 56.305c-2.7852-2.4141-4.0859-6.6914-4.0859-12.82v-2.7891h13.75v3.3438c0 3.7148 0 6.1328 0.37109 6.875 0.18359 0.92969 0.92969 1.4883 2.043 1.4883 0.92969 0 1.6719-0.37109 2.043-0.92969 0.55859-0.74219 0.74219-1.6719 0.74219-2.7891 0-3.1602-0.18359-5.3906-0.74219-6.6875-0.37109-1.3008-1.8555-2.7891-4.2734-4.2734-4.2734-2.6016-7.0625-4.6445-8.5469-5.7617-1.6719-1.3008-2.7891-2.9727-3.9023-5.2031-1.1133-2.4141-1.6719-4.832-1.6719-7.6172 0-4.0898 1.1133-7.4336 3.3438-9.6641 2.4141-2.4141 5.9453-3.9023 10.59-4.4609v-4.2734h6.3164v4.2734c4.2734 0.55859 7.4336 2.043 9.4766 4.2734 2.0469 2.4141 3.1602 5.5742 3.1602 9.6641 0 0.55859 0 1.3008-0.1875 2.6016h-13.75v-2.4141c0-2.4141-0.1875-3.9023-0.37109-4.6445-0.37109-0.74219-1.1133-1.1133-2.043-1.1133-0.92969 0-1.4883 0.18359-1.8594 0.92969-0.55859 0.55859-0.74219 1.6719-0.74219 2.9727 0 2.043 0.55859 3.5312 1.3008 4.4609 0.92969 0.92969 3.3438 2.6016 7.4336 5.0195 3.5312 2.043 5.9453 3.7148 7.0625 4.832 1.3008 1.1133 2.4141 2.7891 3.3438 4.832 0.74219 2.043 1.3008 4.4609 1.3008 7.6172 0 4.832-1.3008 8.7344-3.5312 11.52-2.4141 2.7891-5.9453 4.4609-10.59 5.2031v5.0156h-6.3164v-5.2031c-3.7188-0.375-6.875-1.8594-9.6641-4.2773zm256.07 34.379v0.1875 24.898c0 1.4883-1.8594 3.3438-4.2734 3.3438h-227.08c-2.4141 0-4.4609-1.8594-4.4609-3.3438v-23.969c9.8477-1.3008 18.953-4.832 26.758-10.406h184.71c4.0859 0 7.4336-3.3438 7.4336-7.4336 0-4.0859-3.3438-7.4336-7.4336-7.4336h-170.02c5.2031-7.4336 8.3633-16.352 9.6641-25.828h97.742l-0.55859 5.5742c-0.1875 2.7891 1.1133 5.5742 3.5312 7.0625 1.3008 0.74219 2.6016 0.92969 3.9023 0.92969 1.4844 0 2.7852-0.37109 4.0859-1.1133l19.328-12.449h32.52c4.0859 0 7.4336-3.3438 7.4336-7.4336 0-4.0859-3.3438-7.4336-7.4336-7.4336h-9.293l1.4844-0.92969c0.92969-0.55859 1.4883-1.3008 2.2305-2.2305v-0.1875l29.734-49.059zm86.965-289.51-13.938 23.043-26.758-16.168 13.938-23.043c0.55859-0.92969 1.4883-1.6719 2.6016-1.8555 1.1133-0.37109 2.4141-0.1875 3.3438 0.37109l19.324 11.707c2.0469 1.2969 2.6055 3.8984 1.4883 5.9453z"/>
  <path d="m264.55 286.43h187.31c4.0859 0 7.4336-3.3438 7.4336-7.4336s-3.3438-7.4336-7.4336-7.4336l-187.31 0.003906c-4.0898 0-7.4336 3.3438-7.4336 7.4336 0 4.0859 3.3477 7.4297 7.4336 7.4297z"/>
  <path d="m264.55 327.13h187.31c4.0859 0 7.4336-3.3438 7.4336-7.4336 0-4.0898-3.3438-7.4336-7.4336-7.4336l-187.31 0.003906c-4.0898 0-7.4336 3.3438-7.4336 7.4336 0 4.0859 3.3477 7.4297 7.4336 7.4297z"/>
 </g>
</svg>
