<?xml version="1.0" encoding="UTF-8"?>
<svg width="752pt" height="752pt" version="1.1" viewBox="0 0 752 752" xmlns="http://www.w3.org/2000/svg">
 <g>
  <path d="m582.01 433.3c-4.2617-4.7344-11.84-5.2109-16.574-0.94531l-19.891 17.523v-128.82c0-25.102-19.891-45.465-44.516-45.465h-296.46c-6.6289 0-11.84 5.2109-11.84 11.84s5.2109 11.84 11.84 11.84h295.99c11.367 0 20.836 9.9453 20.836 21.785v128.81l-19.891-17.523c-4.7344-4.2617-12.312-3.7891-16.574 0.94531s-3.7891 12.312 0.94531 16.574l39.781 35.047 0.47266 0.47266c0.47266 0 0.47266 0.47266 0.94531 0.47266 0.47266 0 0.94531 0.47266 0.94531 0.47266 0.47266 0 0.47266 0.47266 0.94531 0.47266 0.47266 0 0.94531 0.47266 1.4219 0.47266h0.94531 2.3672 2.3672 0.94531c0.47266 0 0.94531 0 1.4219-0.47266 0.47266 0 0.47266-0.47266 0.94531-0.47266s0.94531-0.47266 0.94531-0.47266c0.47266 0 0.47266-0.47266 0.94531-0.47266l0.47266-0.47266 39.781-35.047c4.2773-4.2578 4.75-11.836 0.48828-16.57z"/>
  <path d="m547.44 507.66h-295.99c-11.367 0-20.836-9.9453-20.836-21.785v-128.34l19.891 17.523c2.3672 1.8945 5.2109 2.8398 8.0508 2.8398 3.3164 0 6.6289-1.4219 8.9961-3.7891 4.2617-4.7344 3.7891-12.312-0.94531-16.574l-39.781-35.047-0.47266-0.47266c-0.47266 0-0.47266-0.47266-0.94531-0.47266s-0.47266-0.47266-0.94531-0.47266c-0.47266 0-0.47266-0.47266-0.94531-0.47266s-0.94531-0.47266-1.4219-0.47266h-0.94531-2.3672-2.3672-0.94531c-0.47266 0-0.94531 0-1.4219 0.47266-0.47266 0-0.47266 0.47266-0.94531 0.47266-0.47266 0-0.94531 0.47266-0.94531 0.47266-0.47266 0-0.47266 0.47266-0.94531 0.47266l-0.47266 0.47266-39.324 34.574c-4.7344 4.2617-5.2109 11.84-0.94531 16.574 4.2617 4.7344 11.84 5.2109 16.574 0.94531l19.891-17.523v128.81c0 25.102 19.891 45.465 44.516 45.465h295.99c6.6289 0 11.84-5.2109 11.84-11.84 0-6.625-5.2109-11.836-11.84-11.836z"/>
  <path d="m405.84 220.67h-59.672c-19.418 0-34.57 19.891-34.57 45.465v30.309h23.68v-30.309c0-13.262 6.6289-21.785 10.891-21.785h60.145c4.2617 0 10.891 8.5234 10.891 21.785v30.309h23.68v-30.309c0.003906-25.574-15.152-45.465-35.043-45.465z"/>
  <path d="m429.52 434.73c0-24.152-23.68-44.043-53.043-44.043-29.363 0-53.043 19.891-53.043 44.043 0 0.94531-0.47266 1.4219-0.47266 2.3672v44.988c0 5.6836 6.1562 10.891 13.262 10.891h80.98c7.1055 0 13.262-4.7344 13.262-10.891v-44.988c-0.47266-0.94922-0.47266-1.8945-0.94531-2.3672z"/>
  <path d="m407.26 349.48c0 19.617-13.992 35.52-31.258 35.52-17.262 0-31.254-15.902-31.254-35.52 0-19.617 13.992-35.52 31.254-35.52 17.266 0 31.258 15.902 31.258 35.52"/>
 </g>
</svg>
