<?xml version="1.0" encoding="UTF-8"?>
<svg width="752pt" height="752pt" version="1.1" viewBox="0 0 752 752" xmlns="http://www.w3.org/2000/svg">
 <g fill-rule="evenodd">
  <path d="m438.44 585.04c-10.254 0-21.809-0.71875-33.715-1.5938-6.5977-0.48438-12.305-0.90234-15.793-0.90234-3.9883 0-7.6172-1.6445-10.496-4.7461-12.922-13.91-10.914-56.992-8.0156-96.273 0.47656-6.4258 0.85156-11.504 0.90234-14.484l1.418-80.504c0.28516-16.234 12.621-24.621 24.82-24.621 0.16016 0 0.30859 0.007812 0.46875 0.007812 12.309 0.21875 24.613 8.7852 24.328 24.754l-1.5586 88.594c-0.035156 2.1875-1.8203 3.9297-4.0039 3.9297h-0.066406c-2.2109-0.035156-3.9727-1.8594-3.9375-4.0703l1.5586-88.598c0.19922-11.203-8.3945-16.461-16.461-16.602-8.3945-0.16016-16.93 4.9727-17.137 16.746l-1.418 80.504c-0.058594 3.2031-0.43359 8.375-0.91797 14.934-1.8594 25.223-5.7383 77.707 5.8906 90.23 1.3867 1.4922 2.8516 2.1875 4.6289 2.1875 3.7812 0 9.6211 0.42578 16.379 0.91797 18.848 1.3867 53.922 3.9531 62.348-3.5625 1.168-1.043 1.3516-1.9688 1.375-2.6602 0.79297-19.789 6.5234-36.559 12.59-54.324 5.4805-16.07 11.156-32.672 12.965-51.996 4.9492-52.996-40.223-96.723-40.68-97.156-1.6016-1.5273-1.6602-4.0625-0.13281-5.6641 1.5273-1.6016 4.0625-1.6602 5.6562-0.13281 0.50391 0.47656 12.281 11.797 23.551 30.195 15.008 24.512 21.777 49.926 19.574 73.512-1.8867 20.258-7.7188 37.328-13.359 53.828-5.8672 17.195-11.414 33.43-12.164 52.062-0.125 3.1875-1.5273 6.0586-4.0469 8.3086-6.1328 5.4727-18.797 7.1758-34.547 7.1758z"/>
  <path d="m438.44 585.04c-10.254 0-21.809-0.71875-33.715-1.5938-6.5977-0.48438-12.305-0.90234-15.793-0.90234-3.9883 0-7.6172-1.6445-10.496-4.7461-12.922-13.91-10.914-56.992-8.0156-96.273 0.47656-6.4258 0.85156-11.504 0.90234-14.484l1.418-80.504c0.28516-16.234 12.621-24.621 24.82-24.621 0.16016 0 0.30859 0.007812 0.46875 0.007812 12.309 0.21875 24.613 8.7852 24.328 24.754l-1.5586 88.594c-0.035156 2.1875-1.8203 3.9297-4.0039 3.9297h-0.066406c-2.2109-0.035156-3.9727-1.8594-3.9375-4.0703l1.5586-88.598c0.19922-11.203-8.3945-16.461-16.461-16.602-8.3945-0.16016-16.93 4.9727-17.137 16.746l-1.418 80.504c-0.058594 3.2031-0.43359 8.375-0.91797 14.934-1.8594 25.223-5.7383 77.707 5.8906 90.23 1.3867 1.4922 2.8516 2.1875 4.6289 2.1875 3.7812 0 9.6211 0.42578 16.379 0.91797 18.848 1.3867 53.922 3.9531 62.348-3.5625 1.168-1.043 1.3516-1.9688 1.375-2.6602 0.79297-19.789 6.5234-36.559 12.59-54.324 5.4805-16.07 11.156-32.672 12.965-51.996 4.9492-52.996-40.223-96.723-40.68-97.156-1.6016-1.5273-1.6602-4.0625-0.13281-5.6641 1.5273-1.6016 4.0625-1.6602 5.6562-0.13281 0.50391 0.47656 12.281 11.797 23.551 30.195 15.008 24.512 21.777 49.926 19.574 73.512-1.8867 20.258-7.7188 37.328-13.359 53.828-5.8672 17.195-11.414 33.43-12.164 52.062-0.125 3.1875-1.5273 6.0586-4.0469 8.3086-6.1328 5.4727-18.797 7.1758-34.547 7.1758z"/>
  <path d="m374.89 479.21h-97.422c-15.676 0-28.434-12.758-28.434-28.434v-255.38c0-15.676 12.758-28.434 28.434-28.434h154.77c15.676 0 28.434 12.758 28.434 28.434v255.38c0 15.676-12.758 28.434-28.434 28.434h-15.449c-2.2109 0-4.0078-1.793-4.0078-4.0039 0-2.2109 1.793-4.0039 4.0039-4.0039h15.453c11.262 0 20.422-9.1602 20.422-20.426v-255.38c0-11.262-9.1641-20.426-20.426-20.426h-154.77c-11.262 0-20.426 9.1602-20.426 20.426v255.38c0 11.262 9.1602 20.426 20.422 20.426h97.426c2.2188 0 4.0039 1.793 4.0039 4.0039 0 2.2188-1.793 4.0039-4.0039 4.0039z"/>
  <path d="m374.89 479.21h-97.422c-15.676 0-28.434-12.758-28.434-28.434v-255.38c0-15.676 12.758-28.434 28.434-28.434h154.77c15.676 0 28.434 12.758 28.434 28.434v255.38c0 15.676-12.758 28.434-28.434 28.434h-15.449c-2.2109 0-4.0078-1.793-4.0078-4.0039 0-2.2109 1.793-4.0039 4.0039-4.0039h15.453c11.262 0 20.422-9.1602 20.422-20.426v-255.38c0-11.262-9.1641-20.426-20.426-20.426h-154.77c-11.262 0-20.426 9.1602-20.426 20.426v255.38c0 11.262 9.1602 20.426 20.422 20.426h97.426c2.2188 0 4.0039 1.793 4.0039 4.0039 0 2.2188-1.793 4.0039-4.0039 4.0039z"/>
  <path d="m421.36 223.74h-131.15c-2.2109 0-4.0039-1.793-4.0039-4.0039 0-2.2109 1.793-4.0039 4.0039-4.0039h131.15c2.2109 0 4.0039 1.793 4.0039 4.0039 0 2.2109-1.793 4.0039-4.0039 4.0039z"/>
  <path d="m421.36 223.74h-131.15c-2.2109 0-4.0039-1.793-4.0039-4.0039 0-2.2109 1.793-4.0039 4.0039-4.0039h131.15c2.2109 0 4.0039 1.793 4.0039 4.0039 0 2.2109-1.793 4.0039-4.0039 4.0039z"/>
  <path d="m421.36 275.88h-131.15c-2.2109 0-4.0039-1.793-4.0039-4.0039 0-2.2188 1.793-4.0039 4.0039-4.0039h131.15c2.2109 0 4.0039 1.7852 4.0039 4.0039 0 2.2109-1.793 4.0039-4.0039 4.0039z"/>
  <path d="m421.36 275.88h-131.15c-2.2109 0-4.0039-1.793-4.0039-4.0039 0-2.2188 1.793-4.0039 4.0039-4.0039h131.15c2.2109 0 4.0039 1.7852 4.0039 4.0039 0 2.2109-1.793 4.0039-4.0039 4.0039z"/>
  <path d="m421.36 328.01h-131.15c-2.2109 0-4.0039-1.793-4.0039-4.0039 0-2.2109 1.793-4.0039 4.0039-4.0039h131.15c2.2109 0 4.0039 1.793 4.0039 4.0039 0 2.2109-1.793 4.0039-4.0039 4.0039z"/>
  <path d="m421.36 328.01h-131.15c-2.2109 0-4.0039-1.793-4.0039-4.0039 0-2.2109 1.793-4.0039 4.0039-4.0039h131.15c2.2109 0 4.0039 1.793 4.0039 4.0039 0 2.2109-1.793 4.0039-4.0039 4.0039z"/>
  <path d="m379.33 380.14h-89.121c-2.2109 0-4.0039-1.793-4.0039-4.0039 0-2.2109 1.793-4.0039 4.0039-4.0039h89.121c2.2109 0 4.0039 1.793 4.0039 4.0039 0 2.2109-1.793 4.0039-4.0039 4.0039z"/>
  <path d="m379.33 380.14h-89.121c-2.2109 0-4.0039-1.793-4.0039-4.0039 0-2.2109 1.793-4.0039 4.0039-4.0039h89.121c2.2109 0 4.0039 1.793 4.0039 4.0039 0 2.2109-1.793 4.0039-4.0039 4.0039z"/>
  <path d="m376.01 432.27h-85.801c-2.2109 0-4.0039-1.793-4.0039-4.0039 0-2.2188 1.793-4.0039 4.0039-4.0039h85.801c2.2109 0 4.0039 1.7852 4.0039 4.0039 0 2.2109-1.793 4.0039-4.0039 4.0039z"/>
  <path d="m376.01 432.27h-85.801c-2.2109 0-4.0039-1.793-4.0039-4.0039 0-2.2188 1.793-4.0039 4.0039-4.0039h85.801c2.2109 0 4.0039 1.7852 4.0039 4.0039 0 2.2109-1.793 4.0039-4.0039 4.0039z"/>
 </g>
</svg>
