<?xml version="1.0" encoding="UTF-8"?>
<svg width="752pt" height="752pt" version="1.1" viewBox="0 0 752 752" xmlns="http://www.w3.org/2000/svg">
 <g>
  <path d="m456.75 267.32v23.109h9.4258v217.38h-180.34v-217.38h9.375v-23.109h-32.535v263.64h226.66v-263.64z"/>
  <path d="m331.68 308.94h88.652c4.2109-0.023437 8.2422-1.7188 11.207-4.7109 2.9648-2.9922 4.625-7.0352 4.6094-11.246v-30.641c0.015625-4.2148-1.6445-8.2578-4.6094-11.25s-6.9961-4.6875-11.207-4.7109h-11.508c-2.5352-9.7617-9.2812-17.887-18.41-22.172-9.1289-4.2812-19.688-4.2812-28.816 0-9.1289 4.2852-15.875 12.41-18.41 22.172h-11.508c-4.2148 0.023438-8.2422 1.7188-11.207 4.7109-2.9688 2.9922-4.625 7.0352-4.6133 11.25v30.547-0.003906c-0.035157 4.2305 1.6094 8.3008 4.5781 11.312s7.0117 4.7188 11.242 4.7422zm2.6992-43.949h26.094v-9.2344c0-5.5469 2.9609-10.676 7.7656-13.449 4.8047-2.7773 10.727-2.7773 15.535 0 4.8047 2.7734 7.7656 7.9023 7.7656 13.449v9.2344h26.094v25.43l-83.254 0.003906z"/>
  <path d="m376 248.13c-3.2734 0-6.2266 1.9766-7.4805 5-1.2539 3.0273-0.55859 6.5117 1.7539 8.8281 2.3164 2.3125 5.8008 3.0078 8.8281 1.7539 3.0234-1.2539 5-4.207 5-7.4805-0.027343-4.4648-3.6367-8.0742-8.1016-8.1016z"/>
  <path d="m412.99 447.37c5.9648 0.13672 11.633-2.6055 15.223-7.3711 3.5898-4.7656 4.6641-10.973 2.8828-16.668-1.7812-5.6953-6.1953-10.184-11.863-12.055-5.6641-1.875-11.883-0.90234-16.707 2.6094l-33.152-21.879c0.24609-1.1992 0.37109-2.4219 0.37891-3.6445v-1.9883l31.586-21.5-1.3242 10.184v-0.003906c-0.47656 3.8008 2.2148 7.2734 6.0156 7.7656h0.89844c3.5664 0.023438 6.5742-2.6562 6.9609-6.2031l4.0273-30.781-29.883-8.5234v-0.003906c-1.8203-0.67188-3.8359-0.55078-5.5664 0.32812-1.7305 0.87891-3.0117 2.4375-3.543 4.3047-0.52734 1.8672-0.25391 3.8672 0.75391 5.5234 1.0117 1.6562 2.6641 2.8164 4.5664 3.1992l9.1875 2.6523-30.215 20.508c-4.6445-3.8516-10.875-5.1992-16.695-3.6094-5.8242 1.5898-10.504 5.9141-12.547 11.594-2.043 5.6758-1.1914 11.996 2.2812 16.93 3.4766 4.9336 9.1328 7.8633 15.168 7.8555 3.7109-0.003906 7.3281-1.1445 10.371-3.2656l33.152 21.879c-0.23047 1.2188-0.34375 2.4531-0.33203 3.6953-0.046875 0.59766-0.046875 1.1992 0 1.7969l-42.621 22.496c-4.3086-3.6484-10.051-5.125-15.586-4.0078-5.5352 1.1133-10.254 4.6992-12.812 9.7344-2.5586 5.0312-2.6758 10.961-0.31641 16.09 2.3594 5.1289 6.9336 8.8945 12.422 10.227s11.281 0.082031 15.73-3.3945c4.4492-3.4766 7.0625-8.7969 7.0977-14.441v-1.8477l42.621-22.496c3.3125 2.793 7.5078 4.3203 11.84 4.3125zm0-23.109v-0.003907c2.6172 0 4.7344 2.1211 4.7344 4.7383 0 2.6133-2.1172 4.7344-4.7344 4.7344-2.6172 0-4.7344-2.1211-4.7344-4.7344 0-2.6172 2.1172-4.7383 4.7344-4.7383zm-61.566-31.539v-0.003906c-2.6133 0-4.7344-2.1211-4.7344-4.7344 0-2.6172 2.1211-4.7383 4.7344-4.7383 2.6172 0 4.7383 2.1211 4.7383 4.7383 0 2.6133-2.1211 4.7344-4.7383 4.7344zm-11.648 79.18c-2.6172 0-4.7383-2.1211-4.7383-4.7383 0-2.6133 2.1211-4.7344 4.7383-4.7344 2.6133 0 4.7344 2.1211 4.7344 4.7344 0 2.6172-2.1211 4.7383-4.7344 4.7383z"/>
 </g>
</svg>
