<?xml version="1.0" encoding="UTF-8"?>
<svg width="752pt" height="752pt" version="1.1" viewBox="0 0 752 752" xmlns="http://www.w3.org/2000/svg">
 <g>
  <path d="m519.78 429.99c-19.32-45.699-58.062-80.273-104.85-94.574 22.07-17.855 36.18-45.133 36.18-75.68 0-53.656-43.664-97.32-97.32-97.32s-97.32 43.664-97.32 97.32c0 30.547 14.113 57.824 36.18 75.68-29.695 9.0938-56.547 26.426-77.195 50.199-26.285 30.309-40.773 69.094-40.773 109.21v26.188c0 24.293 19.797 44.09 44.09 44.09h218.56c14.824 15.105 35.473 24.484 58.25 24.484 45.039 0 81.645-36.609 81.645-81.645 0.050782-36.605-24.195-67.625-57.441-77.949zm-243.85-170.25c0-42.953 34.949-77.855 77.855-77.855 42.953 0 77.855 34.949 77.855 77.855 0 42.953-34.949 77.855-77.855 77.855s-77.855-34.949-77.855-77.855zm-57.113 285.9c-13.59 0-24.625-11.035-24.625-24.625v-26.188c0-71.367 52.473-133.31 122.47-145.15 11.461 4.7344 24.012 7.3867 37.176 7.3867 13.164 0 25.715-2.6523 37.176-7.3867 45.32 7.6719 84.344 36.324 105.56 76.672h-0.89844c-45.039 0-81.645 36.609-81.645 81.645 0 13.59 3.3633 26.426 9.2344 37.695h-204.45zm276.81 24.484c-34.289 0-62.18-27.895-62.18-62.18 0-34.289 27.895-62.18 62.18-62.18 34.289 0 62.18 27.895 62.18 62.18s-27.895 62.18-62.18 62.18z"/>
  <path d="m505.38 498.23v-32.773c0-5.3516-4.3555-9.707-9.707-9.707-5.3516 0-9.707 4.3555-9.707 9.707v32.773h-32.773c-5.3516 0-9.707 4.3555-9.707 9.707 0 5.3516 4.3555 9.707 9.707 9.707h32.773v32.773c0 5.3516 4.3555 9.707 9.707 9.707 5.3516 0 9.707-4.3555 9.707-9.707v-32.773h32.773c5.3516 0 9.707-4.3555 9.707-9.707 0-5.3516-4.3555-9.707-9.707-9.707z"/>
 </g>
</svg>
