<?xml version="1.0" encoding="UTF-8"?>
<svg width="752pt" height="752pt" version="1.1" viewBox="0 0 752 752" xmlns="http://www.w3.org/2000/svg">
 <defs>
  <clipPath id="d">
   <path d="m331 426h52v186.79h-52z"/>
  </clipPath>
  <clipPath id="c">
   <path d="m290 426h52v186.79h-52z"/>
  </clipPath>
  <clipPath id="b">
   <path d="m331 139.21h96v238.79h-96z"/>
  </clipPath>
  <clipPath id="a">
   <path d="m247 139.21h95v238.79h-95z"/>
  </clipPath>
 </defs>
 <g clip-path="url(#d)">
  <path d="m336.7 612.79c-0.94531 0-2.3672-0.47266-3.3164-1.4219-1.8945-1.8945-2.3672-4.7344-0.47266-6.6289l39.781-45.465-22.258-127.39c-0.47266-2.8398 1.4219-5.2109 3.7891-5.6836 2.8398-0.47266 5.2109 1.4219 5.6836 3.7891l22.73 129.76c0.47266 1.4219 0 2.8398-0.94531 4.2617l-41.203 47.359c-0.94922 0.94531-2.3711 1.4219-3.7891 1.4219z"/>
 </g>
 <g clip-path="url(#c)">
  <path d="m336.7 612.79c-1.4219 0-2.8398-0.47266-3.7891-1.4219l-41.203-47.359c-0.94531-0.94531-1.4219-2.3672-0.94531-4.2617l22.73-129.76c0.47266-2.8398 2.8398-4.2617 5.6836-3.7891 2.8398 0.47266 4.2617 2.8398 3.7891 5.6836l-22.258 127.39 39.781 45.465c1.8945 1.8945 1.4219 5.2109-0.47266 6.6289-0.94922 0.94531-1.8984 1.4219-3.3164 1.4219z"/>
 </g>
 <path d="m336.7 425.73c-0.94531 0-1.4219 0-2.3672-0.47266l-34.102-18.469c-2.3672-1.4219-3.3164-4.2617-1.8945-6.6289s4.2617-3.3164 6.6289-1.8945l32.203 17.051 32.203-17.051c2.3672-1.4219 5.2109-0.47266 6.6289 1.8945 1.4219 2.3672 0.47266 5.2109-1.8945 6.6289l-34.57 17.996c-1.418 0.47266-1.8906 0.94531-2.8359 0.94531z"/>
 <g clip-path="url(#b)">
  <path d="m336.7 377.42c-2.8398 0-4.7344-2.3672-4.7344-4.7344 0-2.8398 2.3672-4.7344 4.7344-4.7344 20.363 0 40.254-11.367 52.566-30.309 22.73-35.047 27.469-69.145 27.469-113.66-0.47656-2.8438-3.3164-75.301-79.562-75.301-2.8398 0-4.7344-2.3672-4.7344-4.7344 0-2.8398 2.3672-4.7344 4.7344-4.7344 85.719 0 89.035 83.824 89.035 84.77 0 46.41-4.7344 82.402-28.887 118.87-13.738 21.785-36.469 34.57-60.621 34.57z"/>
 </g>
 <g clip-path="url(#a)">
  <path d="m336.7 377.42c-23.68 0-46.41-12.785-60.617-34.57-24.152-36.938-28.887-72.93-28.887-118.87 0-0.94531 3.3164-85.246 89.035-85.246 2.8398 0 4.7344 2.3672 4.7344 4.7344 0 2.8398-2.3672 4.7344-4.7344 4.7344-76.254 0.47656-79.094 72.934-79.094 76.25 0 44.043 4.7344 78.613 27.469 113.66 12.312 18.941 31.73 30.309 52.566 30.309 2.8398 0 4.7344 2.3672 4.7344 4.7344 0 2.3672-2.3672 4.2617-5.207 4.2617z"/>
 </g>
 <path d="m274.66 564.01h-118.39l10.418-88.086c0.94531-6.1562 1.8945-11.84 3.7891-16.574 9.4727-25.102 30.781-39.781 46.41-43.57l41.203-9.9453c18.941-4.2617 33.152-20.363 34.57-39.309v-7.5781c0-2.8398 1.8945-4.7344 4.7344-4.7344 2.8398 0 4.7344 1.8945 4.7344 4.7344v8.0508c-1.4219 23.207-18.941 43.098-42.148 48.305l-41.203 9.9453c-13.734 2.8398-31.73 17.051-39.781 37.414-1.4219 4.2617-2.3672 8.9961-3.3164 14.207l-8.5195 77.672h107.5c2.8398 0 4.7344 2.3672 4.7344 4.7344 0 2.8398-2.3672 4.7344-4.7344 4.7344z"/>
 <path d="m440.88 422.41h-0.94531l-26.047-6.6289c-23.207-5.2109-40.254-25.102-42.148-48.305 0-2.8398-0.47266-5.6836 0-8.0508 0-2.8398 2.3672-4.7344 4.7344-4.7344 2.8398 0 4.7344 2.3672 4.7344 4.7344v7.5781c1.4219 18.941 15.629 35.047 34.57 39.309l26.047 6.6289c2.3672 0.47266 4.2617 3.3164 3.7891 5.6836-0.47266 1.8906-2.3672 3.7852-4.7344 3.7852z"/>
 <path d="m485.4 564.01h-80.035c-2.8398 0-4.7344-2.3672-4.7344-4.7344 0-2.8398 2.3672-4.7344 4.7344-4.7344h79.562c1.8945 0 45.465-0.47266 45.465-45.465v-42.148h44.516l-70.562-83.352-70.566 83.352h39.309c2.8398 0 4.7344 2.3672 4.7344 4.7344 0 2.8398-2.3672 4.7344-4.7344 4.7344l-60.145 0.003906 91.402-107.98 91.402 107.98h-54.938v32.203c0 54.934-54.938 55.406-55.41 55.406z"/>
</svg>
