<?xml version="1.0" encoding="UTF-8"?>
<svg width="752pt" height="752pt" version="1.1" viewBox="0 0 752 752" xmlns="http://www.w3.org/2000/svg">
 <defs>
  <clipPath id="a">
   <path d="m146 139.21h460v473.58h-460z"/>
  </clipPath>
 </defs>
 <g clip-path="url(#a)">
  <path d="m349.57 401.07c0-7.3359 1.6641-13.234 4.9141-17.77s8.0898-7.4102 14.594-8.7695v-8.0898h15.125v8.0898c6.5781 1.2109 11.57 4.082 14.895 8.6211 3.25 4.4609 4.9141 10.512 4.9141 17.922v3.4023h-17.469v-4.4609c0-3.9336-0.83203-6.7305-2.418-8.3164-1.5898-1.5898-3.9336-2.418-6.8047-2.418-2.9492 0-5.1406 0.83203-6.8047 2.418-1.5898 1.5898-2.418 4.3867-2.418 8.3164 0 3.707 0.90625 6.8828 2.6484 9.6016 1.8164 2.7227 4.082 5.2188 6.7305 7.5625 2.7227 2.2695 5.5938 4.5352 8.6953 6.8047 3.0234 2.1914 5.8984 4.6875 8.6211 7.4844s4.9141 6.0508 6.7305 9.7539c1.8164 3.6289 2.6484 8.0898 2.6484 13.234 0 7.4844-1.6641 13.461-4.9922 17.996-3.4023 4.6133-8.3945 7.4844-14.973 8.6953v7.9414h-15.125v-7.9414c-6.7305-1.2109-11.719-4.082-15.047-8.6953-3.25-4.5352-4.9141-10.512-4.9141-17.996v-7.4102h17.469v8.543c0 3.9336 0.83203 6.6523 2.5703 8.168 1.7383 1.5898 4.082 2.3438 6.957 2.3438 2.9492 0 5.293-0.75781 7.0312-2.3438 1.7383-1.5117 2.5703-4.2344 2.5703-8.168 0-3.7812-0.90625-6.957-2.6484-9.6797-1.8164-2.6484-4.082-5.1406-6.7305-7.4844-2.7227-2.3438-5.5938-4.6133-8.6953-6.8828-3.0234-2.1914-5.9727-4.6875-8.6211-7.4844-2.7227-2.7969-4.9141-6.0508-6.7305-9.6797-1.8164-3.707-2.7227-8.0898-2.7227-13.309zm-136.56 198.64 11.191 13.082 11.266-13.082-7.5625-63.973h-6.957l-7.9414 63.973zm89.301-8.0898s0-26.012-2.2695-43.176c-2.1914-17.242-35.465-24.121-47.863-28.961-8.3945-3.25-8.543-10.512-8.543-10.512-11.57 14.215-27.145 14.367-38.867-0.074219 0 0 0.90625 6.8828-8.543 10.586-12.402 4.8398-45.598 11.719-47.863 28.961-2.1914 17.164-2.1914 43.176-2.1914 43.176h60.645l8.6953-56.863c0.37891-2.6484 2.7227-3.4766 5.3672-3.4766h7.4844c2.5703 0 4.6875 0.90625 4.9922 3.4766l7.3359 56.863h61.625zm-110.7-130.13c0 15.352 2.875 23.969 12.023 38.715 7.1094 9.1484 13.914 13.309 20.566 12.777 6.7305 0.53125 13.535-3.6289 20.645-12.777 9.0742-14.746 11.949-23.367 11.949-38.715 0-44.461-65.18-44.461-65.18 0zm325 138.23 11.191 13.082 11.191-13.082-7.4844-63.973h-6.957zm89.227-8.0898s0-26.012-2.1914-43.176c-2.1914-17.242-35.465-24.121-47.863-28.961-8.3945-3.25-8.543-10.512-8.543-10.512-11.645 14.215-27.145 14.367-38.941-0.074218 0 0 0.98438 6.8828-8.4688 10.586-12.402 4.8398-45.672 11.719-47.863 28.961-2.1914 17.164-2.1914 43.176-2.1914 43.176h60.645l8.6953-56.863c0.37891-2.6484 2.7227-3.4766 5.3672-3.4766h7.4102c2.6484 0 4.6875 0.90625 5.0664 3.4766l7.3359 56.863h61.551zm-110.62-130.13c0 15.352 2.875 23.969 11.949 38.715 7.1836 9.1484 13.988 13.309 20.645 12.777 6.6523 0.53125 13.461-3.6289 20.645-12.777 9.0742-14.746 11.949-23.367 11.949-38.715 0-44.461-65.18-44.461-65.18 0zm-130.44-150.7 11.266 13.082 11.191-13.082-7.5625-63.973h-6.957l-7.9414 63.973zm89.301-8.0898s0-26.012-2.1914-43.176c-2.2695-17.242-35.465-24.121-47.863-28.961-8.3945-3.25-8.6211-10.512-8.6211-10.512-11.57 14.215-27.07 14.367-38.867-0.074219 0 0 0.98438 6.8828-8.543 10.586-12.402 4.8398-45.598 11.719-47.789 28.961-2.2695 17.164-2.2695 43.176-2.2695 43.176h60.719l8.6211-56.863c0.37891-2.6484 2.7227-3.4766 5.3672-3.4766h7.4844c2.6484 0 4.6875 0.90625 4.9922 3.4766l7.3359 56.863zm-110.62-130.13c0 15.352 2.7969 23.969 11.949 38.715 7.1094 9.1484 13.914 13.309 20.645 12.777 6.6523 0.53125 13.461-3.6289 20.566-12.777 9.1484-14.746 12.023-23.367 12.023-38.715 0-44.461-65.18-44.461-65.18 0zm33.195 159.85c52.703 0 95.352 42.723 95.352 95.352 0 125.45-190.7 125.45-190.7 0 0-52.629 42.723-95.352 95.352-95.352zm0 14.668c44.539 0 80.684 36.145 80.684 80.684 0 44.613-36.145 80.684-80.684 80.684s-80.684-36.07-80.684-80.684c0-44.539 36.145-80.684 80.684-80.684z" fill-rule="evenodd"/>
 </g>
</svg>
